<?xml version="1.0" encoding="UTF-8"?>
<svg width="118px" height="18px" viewBox="0 0 118 18" version="1.1" xmlns="http://www.w3.org/2000/svg" xmlns:xlink="http://www.w3.org/1999/xlink">
    <!-- Generator: Sketch 52.5 (67469) - http://www.bohemiancoding.com/sketch -->
    <title>Logo_white_trans</title>
    <desc>Created with Sketch.</desc>
    <g id="Page-1" stroke="none" stroke-width="1" fill="none" fill-rule="evenodd">
        <g id="Desktop---Landing-Page-Copy" transform="translate(-150.000000, -24.000000)" fill="#000000">
            <g id="Header-Block">
                <g id="Logo_white_trans" transform="translate(150.000000, 24.000000)">
                    <polygon id="Fill-1" points="11.4248014 0 11.4248014 7.07051827 3.54991944 7.07051827 3.54991944 0 0 0 0 18 3.54991944 18 3.54991944 10.4437004 11.4248014 10.4437004 11.4248014 18 15 18 15 0"></polygon>
                    <polygon id="Fill-2" points="26 0 26 18 38 18 38 14.6807936 29.6100569 14.6807936 29.6100569 10.4979759 37.8220255 10.4979759 37.8220255 7.20545755 29.6100569 7.20545755 29.6100569 3.29251837 38 3.29251837 38 0"></polygon>
                    <polygon id="Fill-3" points="49 0 49 18 59 18 59 14.6265181 52.34897 14.6265181 52.34897 0"></polygon>
                    <polygon id="Fill-6" points="90 18 93 18 93 0 90 0"></polygon>
                    <path d="M75.1835006,14.7345239 C76.5432672,14.7345239 77.3490545,13.8979143 77.3490545,12.6028187 C77.3490545,11.4690478 76.5936289,10.497801 75.1835006,10.497801 L70.5756825,10.497801 L70.5756825,14.7345239 L75.1835006,14.7345239 Z M75.0575963,7.23232492 C76.2662777,7.23232492 77.0217039,6.39571533 77.0217039,5.23525688 C77.0217039,4.1290731 76.2662777,3.26547611 75.0575963,3.26547611 L70.5756825,3.26547611 L70.5756825,7.23232492 L75.0575963,7.23232492 Z M67,0 L75.8382031,0 C79.0361726,0 80.6726486,2.18568002 80.6726486,4.58755914 C80.6726486,6.85450124 79.3632437,8.36579595 77.7771293,8.71663223 C79.5649708,9.0134937 81,10.8756247 81,13.142267 C81,15.8410076 79.312882,18 76.1151926,18 L67,18 L67,0 Z" id="Fill-4" fill-rule="nonzero"></path>
                    <polygon id="Fill-8" points="104 14.8964483 112.681176 3.37312588 104 3.37312588 104 0 117.807078 0 117.807078 3.07656427 109.125902 14.6265743 118 14.6265743 118 18 104 18"></polygon>
                </g>
            </g>
        </g>
    </g>
</svg>